<svg xmlns="http://www.w3.org/2000/svg" width="64" height="64" viewBox="0 0 64 64" role="img" aria-label="Smar AI mind">
  <defs>
    <linearGradient id="g" x1="0" y1="0" x2="1" y2="1">
      <stop offset="0%" stop-color="#7c3aed" />
      <stop offset="100%" stop-color="#22d3ee" />
    </linearGradient>
  </defs>
  <rect width="64" height="64" rx="14" fill="url(#g)" />
  <path d="M26 46c-3 0-6-2-7-5-3-1-5-4-5-7 0-3 2-6 5-7 0-6 5-11 11-11 3 0 6 1 8 3 1-1 3-2 5-2 4 0 8 4 8 9 3 1 5 4 5 7 0 3-2 6-5 7-1 4-4 6-8 6H26z" fill="#fff" opacity="0.95" />
  <path d="M24 27c2-3 6-4 9-3M24 34c2-3 6-4 9-3" stroke="#5b21b6" stroke-width="3" stroke-linecap="round" />
  <path d="M38 28c1-1 3-2 5-2" stroke="#5b21b6" stroke-width="3" stroke-linecap="round" />
</svg>
